# xmcd CD database file
#
# Track frame offsets:
#	150
#	24372
#	44137
#	68345
#
# Disc length: 1172 seconds
#
# Revision: 0
# Processed by: cddbd v1.5.1PL0 Copyright (c) Steve Scherf et al.
# Submitted via: CDex 1.51
#
DISCID=2b049204
DTITLE=Various Artist - アニメ雑誌の編集は３日やったらやめられない
DYEAR=1995
DGENRE=Anime
TTITLE0=副編ブラザーズ/アニメ雑誌の編集は３日やったらやめられない
TTITLE1=おさかなペンギン/おさかなペンギンのテーマ(OSAKANA-Mix)
TTITLE2=副編ブラザーズ/アニメ雑誌の編集は３日やったらやめられない（オリジナルカラオケ）
TTITLE3=おさかなペンギン/おさかなペンギンのテーマ(OSAKANA-Mix)（オリジナルカラオケ）
EXTD=YEAR: 1995
EXTT0=
EXTT1=
EXTT2=
EXTT3=
PLAYORDER=
